<?xml version="1.0" standalone="no"?>
<!DOCTYPE svg PUBLIC "-//W3C//DTD SVG 20010904//EN"
 "http://www.w3.org/TR/2001/REC-SVG-20010904/DTD/svg10.dtd">
<svg version="1.0" xmlns="http://www.w3.org/2000/svg"
 width="350.000000pt" height="350.000000pt" viewBox="0 0 350.000000 350.000000"
 preserveAspectRatio="xMidYMid meet">
<metadata>
Created by potrace 1.11, written by Peter Selinger 2001-2013
</metadata>
<g transform="translate(0.000000,350.000000) scale(0.100000,-0.100000)"
fill="#000000" stroke="none">
<path d="M1893 3235 c-43 -19 -60 -36 -93 -86 -28 -43 -39 -70 -36 -88 3 -14
7 -46 10 -71 3 -25 9 -65 13 -90 7 -44 8 -142 4 -370 0 -63 1 -131 3 -150 2
-19 7 -73 11 -120 3 -47 8 -101 10 -120 2 -19 7 -73 10 -120 9 -125 13 -151
24 -164 5 -6 9 -44 8 -84 -2 -71 -2 -72 -32 -79 -16 -4 -33 -8 -37 -9 -5 -1
-18 -2 -30 -3 -22 -1 -22 -2 6 -24 l28 -23 -90 2 c-70 2 -92 -1 -96 -12 -3 -8
-13 -14 -21 -14 -9 0 -13 4 -10 10 14 22 -121 17 -183 -7 -43 -16 -45 -16 -58
2 -8 10 -14 13 -14 7 0 -17 -33 -28 -132 -47 -46 -9 -95 -23 -109 -30 -15 -8
-38 -15 -50 -14 -13 0 -49 -6 -79 -15 -53 -14 -75 -19 -150 -32 -48 -9 -69
-11 -108 -13 -20 0 -31 -5 -27 -11 4 -6 -7 -13 -23 -16 -21 -4 -32 -15 -41
-40 -7 -19 -21 -39 -32 -44 -11 -6 -17 -15 -14 -21 4 -5 2 -9 -4 -9 -6 0 -8
-7 -4 -15 3 -9 -2 -21 -12 -29 -15 -10 -15 -15 -4 -27 40 -43 49 -57 43 -73
-3 -9 -16 -16 -28 -16 -17 -1 -14 -4 14 -19 34 -19 34 -19 10 -24 -25 -4 -24
-4 8 -18 17 -7 32 -16 32 -19 0 -3 35 -5 77 -4 85 1 128 -12 173 -54 54 -49
60 -53 115 -77 30 -14 66 -38 80 -54 15 -16 53 -38 86 -50 32 -12 59 -27 59
-33 0 -5 7 -8 15 -4 8 3 15 1 15 -5 0 -5 9 -19 20 -31 12 -13 20 -17 20 -9 0
11 3 11 16 0 8 -7 13 -20 11 -30 -3 -9 4 -22 15 -30 11 -8 26 -20 34 -26 18
-18 34 -16 50 4 12 17 16 15 51 -17 21 -21 51 -37 67 -39 30 -3 60 -24 49 -35
-4 -3 3 -6 15 -6 11 0 25 -6 29 -13 4 -7 25 -23 46 -36 20 -12 37 -26 37 -30
0 -6 11 -12 114 -62 26 -13 55 -33 63 -46 18 -27 141 -80 208 -89 28 -3 53 -8
58 -11 22 -13 61 -12 88 4 62 37 83 137 60 288 -25 155 -31 237 -22 278 4 18
4 46 -1 62 -14 48 -24 162 -27 288 -1 49 -5 76 -11 72 -6 -4 -10 5 -10 19 0
16 5 25 13 24 6 -2 11 3 9 10 -1 7 -3 24 -4 37 -1 14 -5 25 -8 25 -6 0 -30 97
-30 123 0 9 7 17 15 17 23 0 135 41 172 63 25 14 59 21 124 25 50 3 86 8 80
11 -6 4 2 14 19 25 17 9 30 13 30 7 0 -6 14 -4 34 4 19 8 42 12 50 9 8 -3 19
3 26 15 6 12 17 21 25 21 7 0 15 5 17 11 2 6 13 12 23 13 26 2 115 47 115 58
0 4 -12 8 -27 9 -53 0 -118 11 -130 21 -17 14 -76 17 -84 5 -4 -5 -62 -11
-130 -12 -68 -1 -145 -8 -171 -15 -36 -11 -52 -11 -72 -2 -16 7 -26 8 -26 2 0
-6 -7 -10 -15 -10 -9 0 -12 6 -8 17 5 12 3 14 -7 8 -7 -4 -25 -9 -40 -11 -23
-3 -27 0 -23 15 3 10 -3 34 -13 52 -14 26 -18 60 -19 144 -1 61 -6 151 -10
200 -4 50 -8 115 -10 146 -1 31 -5 62 -9 68 -4 6 -7 41 -7 78 0 40 -6 78 -16
96 -8 16 -13 41 -10 55 3 14 0 37 -6 51 -6 15 -12 51 -13 81 -3 58 -12 217
-17 287 -2 32 -13 55 -51 102 -27 34 -52 61 -55 61 -3 0 -30 -11 -58 -25z
m-408 -1614 c-7 -12 -91 -40 -127 -43 -15 -1 -30 -8 -32 -15 -6 -14 -46 -18
-46 -4 0 9 130 54 169 58 13 1 26 4 29 7 9 9 14 7 7 -3z m399 -233 c-4 -13 -7
-25 -7 -28 1 -3 4 -45 8 -95 4 -49 9 -97 10 -106 2 -8 6 -51 10 -95 4 -43 8
-92 10 -109 2 -16 6 -66 10 -110 l8 -80 -22 19 c-12 11 -29 21 -37 22 -16 3
-112 50 -131 66 -6 5 -41 25 -77 43 -36 18 -91 53 -123 78 -58 44 -345 207
-367 207 -6 1 -22 7 -36 15 -23 13 -23 14 -5 16 11 1 31 1 45 1 14 -1 72 14
130 32 131 43 212 64 274 71 46 6 285 71 295 80 10 10 12 -5 5 -27z"/>
<path d="M1407 2092 c-15 -10 -25 -23 -22 -30 2 -7 -2 -15 -10 -18 -8 -4 -15
-12 -15 -20 0 -8 -4 -14 -9 -14 -7 0 -7 -48 2 -92 7 -40 83 -91 124 -83 10 2
30 6 45 9 24 5 92 56 75 56 -4 0 -2 12 4 27 9 23 7 30 -12 44 -20 15 -21 21
-12 41 13 28 -3 58 -31 58 -9 0 -19 7 -22 15 -4 8 -10 12 -15 9 -5 -3 -9 -1
-9 3 0 16 -64 12 -93 -5z"/>
<path d="M908 1983 c-6 -7 -19 -13 -30 -13 -11 0 -16 -4 -12 -11 3 -6 -3 -24
-15 -40 -21 -28 -22 -43 -9 -136 1 -7 10 -15 20 -19 10 -3 18 -9 18 -14 0 -12
60 -29 95 -26 54 4 92 32 108 80 15 42 14 44 -5 50 -17 4 -20 10 -15 39 6 38
-4 59 -29 63 -9 2 -20 8 -24 15 -5 6 -13 8 -20 4 -8 -5 -11 -4 -7 2 10 16 -62
22 -75 6z"/>
</g>
</svg>
